<svg id="Layer_1" data-name="Layer 1" xmlns="http://www.w3.org/2000/svg" xmlns:xlink="http://www.w3.org/1999/xlink" viewBox="0 0 88.44 65.33"><defs><style>.cls-1{fill:url(#linear-gradient);}.cls-2{fill:url(#linear-gradient-2);}</style><linearGradient id="linear-gradient" x1="172.34" y1="133.16" x2="127.02" y2="87.84" gradientUnits="userSpaceOnUse"><stop offset="0" stop-color="#ed1e79"/><stop offset="1" stop-color="#c1272d"/></linearGradient><linearGradient id="linear-gradient-2" x1="144.34" y1="133.16" x2="99.02" y2="87.84" gradientUnits="userSpaceOnUse"><stop offset="0" stop-color="#fcee21"/><stop offset="1" stop-color="#f7931e"/></linearGradient></defs><path class="cls-1" d="M181.67,97.89,150.33,79.8A14.55,14.55,0,0,0,128.5,92.41v36.18a14.55,14.55,0,0,0,21.83,12.61l31.34-18.09A14.57,14.57,0,0,0,181.67,97.89Z" transform="translate(-100.5 -77.83)"/><path class="cls-2" d="M153.67,97.89,122.33,79.8A14.55,14.55,0,0,0,100.5,92.41v36.18a14.55,14.55,0,0,0,21.83,12.61l31.34-18.09A14.57,14.57,0,0,0,153.67,97.89Z" transform="translate(-100.5 -77.83)"/></svg>